Coordinates
version=1
nRows=21
nColumns=33
inDegrees=yes

Units are S.I. units (second, meters, Newtons, ...)
Angles are in degrees.

endheader
time	ground_thorax_rot_x	ground_thorax_rot_y	ground_thorax_rot_z	ground_thorax_tx	ground_thorax_ty	ground_thorax_tz	clav_prot_r	clav_elev_r	scapula_abduction_r	scapula_elevation_r	scapula_upward_rot_r	scapula_winging_r	shoulder_elv_r	plane_of_elev_r	axial_rot_r	elbow_flexion_r	pro_sup_r	wrist_flex_r	wrist_dev_r	clav_prot_l	clav_elev_l	scapula_abduction_l	scapula_elevation_l	scapula_upward_rot_l	scapula_winging_l	shoulder_elv_l	plane_of_elev_l	axial_rot_l	elbow_flexion_l	pro_sup_l	wrist_flex_l	wrist_dev_l
      5.70000000	     37.79908281	      6.32956323	     12.35412525	    -84.13050898	    779.86991242	     11.91110000	     17.04596844	     40.64220630	     45.00000000	     42.69915781	    -30.03379751	  -1880.45816424	  -1734.42735259	     33.96732086	     22.58670337	   1448.33621841	     23.06482732	     16.76673811	     15.02467342	      8.46628832	    -45.00000000	    -45.00000000	     45.00000000	    -18.24021596	   3326.97719877	  -2813.33770318	     26.00083947	      0.68755391	   -720.32049197	     41.11208068	     12.23598034	    -18.91745692
      5.71000000	     37.81101598	      5.99487619	     12.10811714	    -84.11047961	    780.39856331	     11.92878793	     16.95879349	     40.48230347	     45.00000000	     42.67048760	    -29.37760253	  -1880.58792739	  -1734.49082099	     33.91293780	     23.06077706	   1448.46640990	     23.37765990	     16.89050007	     15.11502779	      8.27547314	    -45.00000000	    -45.00000000	     45.00000000	    -17.88641909	   3326.94695304	  -2813.32753514	     25.89712529	     -0.15294798	   -720.19478210	     40.54070629	     12.26046613	    -18.88293433
      5.72000000	     37.75505073	      5.71663154	     11.93373946	    -84.41318518	    780.97177310	     11.91476912	     16.72139291	     40.47776140	     45.00000000	     42.55901955	    -28.88480836	  -1880.75079209	  -1734.52440966	     33.90321509	     23.45023539	   1448.58154946	     23.60716783	     16.93878574	     14.80240608	      8.20647768	    -45.00000000	    -45.00000000	     45.00000000	    -17.56970342	   3326.96708266	  -2813.36249011	     25.78957750	     -0.94972600	   -720.14369825	     40.15246779	     12.20240334	    -18.90975000
      5.73000000	     37.66969891	      5.50113353	     11.84681986	    -85.03278653	    781.58584367	     11.86182146	     16.54423682	     40.13276180	     45.00000000	     42.37603006	    -28.36926294	  -1881.06551498	  -1734.48297593	     33.91351881	     23.94374943	   1448.76453443	     23.82864815	     17.05105863	     14.70418143	      8.07860451	    -45.00000000	    -45.00000000	     45.00000000	    -17.21234479	   3327.11147093	  -2813.28992263	     25.69008454	     -1.72076554	   -720.07751127	     39.82378288	     12.18170986	    -18.96443305
      5.74000000	     37.75071394	      5.31126134	     11.69255196	    -85.96040544	    782.23586990	     11.76706557	     16.41775663	     40.61204377	     45.00000000	     42.83999008	    -28.31119152	  -1881.00755767	  -1734.58915782	     33.82334079	     24.27828471	   1449.11004434	     23.96142779	     17.15177620	     14.36449381	      8.00102438	    -45.00000000	    -45.00000000	     45.00000000	    -16.97316100	   3327.31277797	  -2813.37391279	     25.56840026	     -2.33711512	   -719.62342313	     39.37048704	     12.08140231	    -19.07378870
      5.75000000	     37.87223153	      5.27922761	     11.76135450	    -87.19235591	    782.93199605	     11.63094168	     16.66663216	     41.57724945	     45.00000000	     43.33062246	    -28.92427084	  -1880.73456642	  -1734.30813933	     33.79562221	     24.17633682	   1449.45287200	     23.96528814	     17.22912382	     14.03144337	      8.00629051	    -45.00000000	    -45.00000000	     45.00000000	    -17.18923009	   3327.42865047	  -2813.45060806	     25.43164253	     -2.78655165	   -719.45742721	     38.73738097	     12.03474218	    -19.06859053
      5.76000000	     37.86170199	      5.19348225	     11.72102870	    -88.71801976	    783.68773430	     11.45641088	     16.52083244	     41.65795430	     45.00000000	     43.50016027	    -29.05522837	  -1880.85193832	  -1734.11776795	     33.82433614	     24.17869738	   1449.69304400	     23.99162847	     17.33874458	     13.80236854	      7.98720502	    -45.00000000	    -45.00000000	     45.00000000	    -17.07983935	   3327.65774150	  -2813.37746736	     25.42524935	     -3.02678284	   -719.37971382	     38.08379067	     12.03335503	    -19.12951102
      5.77000000	     37.87326606	      5.53110553	     12.18528501	    -90.54371893	    784.52391085	     11.24673573	     17.80729153	     41.83142109	     45.00000000	     44.02634486	    -30.50063923	  -1880.79775590	  -1733.87216866	     34.11580815	     22.87837759	   1449.77799835	     23.72660437	     17.34161315	     13.31810363	      8.31960752	    -45.00000000	    -45.00000000	     45.00000000	    -18.02439168	   3327.97024957	  -2813.34196695	     25.58118741	     -3.00601756	   -719.26012324	     36.88715757	     12.05606915	    -19.10215681
      5.78000000	     37.89782760	      5.16138165	     11.78401607	    -92.65094863	    785.45991128	     11.00908053	     16.73317955	     42.06858533	     45.00000000	     44.13642303	    -29.93654553	  -1880.98400700	  -1733.69541210	     33.96115730	     23.41502529	   1450.12084616	     23.88674366	     17.53217303	     13.18762883	      8.00599525	    -45.00000000	    -45.00000000	     45.00000000	    -17.16260735	   3328.22254166	  -2813.22407078	     25.48162008	     -3.08219036	   -719.26617968	     36.36946902	     12.09182298	    -19.18244910
      5.79000000	     37.91758689	      5.48738021	     12.18415033	    -95.04721415	    786.51141285	     10.75029886	     18.02956952	     42.27920566	     45.00000000	     44.69949193	    -31.24242748	  -1881.03471748	  -1733.49276937	     34.22984805	     22.45305069	   1450.26179290	     23.68008670	     17.54430026	     12.58476322	      8.30877673	    -45.00000000	    -45.00000000	     45.00000000	    -18.05378824	   3328.61715462	  -2813.16581430	     25.66039844	     -3.03239227	   -719.03899421	     35.34841690	     12.08399986	    -19.20203223
      5.80000000	     37.96412496	      5.32937009	     12.04218830	    -97.71327396	    787.69433626	     10.48071862	     17.80838021	     42.51874604	     45.00000000	     45.00000000	    -31.34829793	  -1881.23943143	  -1733.29519239	     34.27965175	     22.36806191	   1450.52298282	     23.72728463	     17.67835083	     12.25331962	      8.20208377	    -45.00000000	    -45.00000000	     45.00000000	    -17.81852127	   3328.95957910	  -2813.03923485	     25.67610569	     -3.11360418	   -718.97851143	     34.63229043	     12.12591736	    -19.26109110
      5.81000000	     37.91035349	      5.12750163	     11.85607888	   -100.63663799	    789.01698173	     10.21135793	     16.64048130	     42.58670821	     45.00000000	     45.00000000	    -30.85918117	  -1881.43396125	  -1733.00407547	     33.91498746	     22.89162271	   1450.92831472	     23.89027002	     17.95923557	     12.18688516	      7.97049035	    -45.00000000	    -45.00000000	     45.00000000	    -17.00503329	   3329.45215423	  -2812.86992662	     25.42135384	     -3.33286142	   -718.65590287	     34.02153397	     12.15575136	    -19.44124564
      5.82000000	     37.73096286	      5.67311992	     12.50710944	   -103.80970610	    790.48097182	      9.95164723	     18.11753744	     42.20704365	     45.00000000	     45.00000000	    -32.35013840	  -1881.83935367	  -1732.50630645	     34.27055492	     21.72174459	   1450.95201047	     23.80548039	     17.94810623	     11.55712876	      8.40579094	    -45.00000000	    -45.00000000	     45.00000000	    -18.23757783	   3329.94428219	  -2812.60618330	     25.65430509	     -3.48578804	   -718.53634645	     32.96202838	     12.18617351	    -19.42527170
      5.83000000	     37.71063032	      5.33459519	     12.20941396	   -107.20019984	    792.09757170	      9.71245019	     16.82484930	     42.34304668	     45.00000000	     45.00000000	    -31.67696521	  -1882.20307765	  -1732.33211951	     34.03990764	     22.30652600	   1451.20955854	     24.06933648	     18.22396632	     11.43986730	      8.10285361	    -45.00000000	    -45.00000000	     45.00000000	    -17.43682810	   3330.40199864	  -2812.34600814	     25.51563354	     -3.92511241	   -718.41840841	     32.34520496	     12.29116254	    -19.60494161
      5.84000000	     37.53001934	      5.87475086	     12.87312847	   -110.81635673	    793.85250501	      9.49874474	     18.03609787	     42.03539790	     45.00000000	     45.00000000	    -33.07103045	  -1882.59823521	  -1731.88297700	     34.29716852	     21.62267054	   1451.28882954	     24.18701904	     18.21976430	     10.80820828	      8.53385926	    -45.00000000	    -45.00000000	     45.00000000	    -18.50035718	   3331.07283247	  -2812.12358336	     25.56665008	     -4.41972585	   -717.97384071	     31.19974170	     12.29384684	    -19.63367558
      5.85000000	     37.43454332	      6.00832084	     13.02924212	   -114.65668475	    795.74295619	      9.31453550	     18.08833448	     41.86275119	     45.00000000	     45.00000000	    -33.54026696	  -1883.00441480	  -1731.53100183	     34.28438712	     21.41343140	   1451.50771276	     24.46617290	     18.37724947	     10.47389807	      8.64265758	    -45.00000000	    -45.00000000	     45.00000000	    -18.66055183	   3331.62179349	  -2811.83991836	     25.54655863	     -4.93344944	   -717.71769010	     30.15523412	     12.38964611	    -19.72031184
      5.86000000	     37.41624965	      6.03160507	     13.05434085	   -118.73457857	    797.75064080	      9.16021635	     18.00520916	     41.80211176	     45.00000000	     45.00000000	    -33.78585443	  -1883.43460336	  -1731.20111545	     34.28009468	     21.26214301	   1451.65824522	     24.80962401	     18.52438161	     10.12934191	      8.70155395	    -45.00000000	    -45.00000000	     45.00000000	    -18.74062738	   3332.16293458	  -2811.57187936	     25.46081504	     -5.65553856	   -717.35924819	     29.14664262	     12.46484323	    -19.85805602
      5.87000000	     37.41108556	      6.03300044	     13.07860057	   -123.01821379	    799.86225607	      9.03775723	     17.97044401	     41.69579662	     45.00000000	     45.00000000	    -34.07303784	  -1883.87408331	  -1730.86439654	     34.28402537	     21.15053844	   1451.81545773	     25.19974136	     18.65787242	      9.77756640	      8.76686828	    -45.00000000	    -45.00000000	     45.00000000	    -18.91328131	   3332.65631459	  -2811.26243171	     25.40245548	     -6.39880474	   -717.08939704	     28.11813180	     12.56203628	    -19.98426400
      5.88000000	     37.42685659	      6.02278420	     12.88619502	   -127.50176233	    802.06039919	      8.94489632	     17.79024350	     41.66913016	     44.86920475	     45.00000000	    -34.11628012	  -1884.32973240	  -1730.53177758	     34.29425130	     21.29986242	   1451.96993318	     25.61544909	     18.77693083	      9.43763693	      8.89142181	    -45.00000000	    -45.00000000	     45.00000000	    -18.82701233	   3333.11995844	  -2811.01175370	     25.35033152	     -7.28775286	   -716.73126301	     27.05255774	     12.62764684	    -20.11830963
      5.89000000	     37.41702329	      6.13481618	     12.98753527	   -132.13987177	    804.32938265	      8.87996359	     17.57943957	     41.34202651	     44.78471559	     45.00000000	    -34.47767374	  -1884.60144370	  -1730.17490438	     34.14863375	     20.92254279	   1452.03276267	     26.02882171	     18.88490281	      9.08434159	      8.96305372	    -45.00000000	    -45.00000000	     45.00000000	    -19.26683893	   3333.63204075	  -2810.64590735	     25.14478811	     -8.37113475	   -716.17963817	     25.77303766	     12.72324392	    -20.33414598
      5.90000000	     37.49622838	      5.98179257	     12.70554321	   -136.89732822	    806.65100484	      8.83831084	     17.40884861	     41.34837483	     44.58116905	     45.00000000	    -34.37500558	  -1884.97131183	  -1729.81049956	     34.18245954	     21.29481339	   1452.18105891	     26.53012628	     18.96833211	      8.76493031	      8.99557375	    -45.00000000	    -45.00000000	     45.00000000	    -19.20339981	   3334.09616942	  -2810.33403699	     25.05921278	     -9.43833867	   -715.87682993	     24.65593517	     12.81719517	    -20.44845581
